<svg width="15" height="15" viewBox="0 0 15 15" fill="none" xmlns="http://www.w3.org/2000/svg">
<path d="M7.50005 0.03125C3.35793 0.03125 0 3.38918 0 7.5313C0 11.2463 2.70391 14.3229 6.24919 14.9187V9.09601H4.43996V7.00066H6.24919V5.45563C6.24919 3.66295 7.3441 2.68605 8.94353 2.68605C9.70956 2.68605 10.3679 2.74313 10.559 2.76827V4.64209L9.44965 4.64263C8.58002 4.64263 8.41235 5.05579 8.41235 5.6623V6.99958H10.4874L10.2168 9.09493H8.41235V14.9688C12.1231 14.5172 15 11.3622 15 7.52915C15 3.38918 11.6421 0.03125 7.50005 0.03125Z" fill="white"/>
</svg>
