<svg width="18" height="18" viewBox="0 0 18 18" fill="none" xmlns="http://www.w3.org/2000/svg">
<path d="M15.75 7.875V5.625H14.625V7.875H12.375V9H14.625V11.25H15.75V9H18V7.875H15.75Z" fill="white"/>
<path d="M5.625 7.875V10.125H8.80762C8.343 11.4345 7.092 12.375 5.625 12.375C3.76425 12.375 2.25 10.8608 2.25 9C2.25 7.13925 3.76425 5.625 5.625 5.625C6.43162 5.625 7.20787 5.91412 7.81087 6.4395L9.28913 4.743C8.27662 3.861 6.97612 3.375 5.625 3.375C2.52338 3.375 0 5.89838 0 9C0 12.1016 2.52338 14.625 5.625 14.625C8.72663 14.625 11.25 12.1016 11.25 9V7.875H5.625Z" fill="white"/>
</svg>
