<svg width="15" height="15" viewBox="0 0 15 15" fill="none" xmlns="http://www.w3.org/2000/svg">
<path d="M7.5 0C3.35812 0 0 3.35812 0 7.5C0 11.6419 3.35812 15 7.5 15C11.6419 15 15 11.6419 15 7.5C15 3.3572 11.6419 0 7.5 0ZM5.625 11.1328H3.75V4.5703H5.625V11.1328ZM4.74562 4.16812C4.25999 4.16812 3.86719 3.77436 3.86719 3.28874C3.86719 2.80311 4.26095 2.40935 4.74562 2.40935C5.23124 2.41028 5.625 2.80403 5.625 3.28874C5.625 3.77436 5.23124 4.16812 4.74562 4.16812ZM12.1875 11.1328H10.3125V7.07531C10.3125 6.59999 10.1765 6.2672 9.59248 6.2672C8.62403 6.2672 8.43748 7.07531 8.43748 7.07531V11.1328H6.56248V4.5703H8.43748V5.19747C8.7056 4.99218 9.37497 4.57122 10.3125 4.57122C10.92 4.57122 12.1875 4.93497 12.1875 7.13246V11.1328Z" fill="white"/>
</svg>
