<svg width="15" height="17" viewBox="0 0 15 17" fill="none" xmlns="http://www.w3.org/2000/svg">
<g clip-path="url(#clip0)">
<path d="M15 3.22106C14.4479 3.4976 13.8555 3.68515 13.2331 3.76888C13.8686 3.33867 14.3551 2.65631 14.5857 1.84572C13.9895 2.24412 13.3315 2.5334 12.6304 2.69022C12.0689 2.01315 11.2703 1.59143 10.3846 1.59143C8.6852 1.59143 7.30733 3.14902 7.30733 5.06899C7.30733 5.34129 7.33451 5.60724 7.38701 5.86156C4.83 5.71638 2.56262 4.33152 1.0451 2.22716C0.779829 2.74001 0.628922 3.33759 0.628922 3.97548C0.628922 5.18236 1.17257 6.24724 1.99743 6.87026C1.49314 6.85119 1.01885 6.69437 0.603628 6.43371V6.47715C0.603628 8.16189 1.66468 9.56795 3.07159 9.88796C2.81382 9.96637 2.54201 10.0098 2.26081 10.0098C2.06211 10.0098 1.86995 9.98757 1.68154 9.94518C2.07333 11.3279 3.20939 12.3335 4.55539 12.361C3.50277 13.2935 2.17552 13.8476 0.733922 13.8476C0.485539 13.8476 0.240882 13.8307 0 13.8C1.36194 14.7886 2.97882 15.365 4.71662 15.365C10.3771 15.365 13.4712 10.0649 13.4712 5.46846L13.4609 5.01814C14.0655 4.5307 14.5885 3.91827 15 3.22106Z" fill="white"/>
</g>
<defs>
<clipPath id="clip0">
<rect width="15" height="16.9565" fill="white"/>
</clipPath>
</defs>
</svg>
